<svg width="33" height="32" viewBox="0 0 33 32" fill="none" xmlns="http://www.w3.org/2000/svg">
<g id="Frame">
<path id="Vector" d="M16.333 31.6375L7.84773 23.1523C3.16143 18.4659 3.16143 10.868 7.84773 6.18171C12.534 1.49542 20.1319 1.49542 24.8183 6.18171C29.5046 10.868 29.5046 18.4659 24.8183 23.1523L16.333 31.6375ZM22.9326 21.2666C26.5775 17.6218 26.5775 11.7122 22.9326 8.06733C19.2878 4.42243 13.3782 4.42243 9.73334 8.06733C6.08845 11.7122 6.08845 17.6218 9.73334 21.2666L16.333 27.8663L22.9326 21.2666ZM16.333 17.3337C14.8602 17.3337 13.6663 16.1398 13.6663 14.667C13.6663 13.1942 14.8602 12.0003 16.333 12.0003C17.8058 12.0003 18.9997 13.1942 18.9997 14.667C18.9997 16.1398 17.8058 17.3337 16.333 17.3337Z" fill="#1E1E1E"/>
</g>
</svg>
