<svg width="33" height="32" viewBox="0 0 33 32" fill="none" xmlns="http://www.w3.org/2000/svg">
<g id="Frame">
<path id="Vector" d="M12.8204 14.2428C14.069 16.4384 15.8946 18.264 18.0902 19.5125L19.2695 17.8615C19.6617 17.3127 20.4018 17.1431 20.9938 17.4664C22.8695 18.4911 24.9425 19.1137 27.1049 19.2849C27.7983 19.3399 28.333 19.9185 28.333 20.6141V26.5645C28.333 27.2481 27.8159 27.8209 27.1359 27.8908C26.4294 27.9635 25.7166 28 24.9997 28C13.5858 28 4.33301 18.7472 4.33301 7.33333C4.33301 6.61636 4.36957 5.90361 4.44219 5.19701C4.51207 4.517 5.08493 4 5.76854 4H11.7189C12.4145 4 12.9932 4.53472 13.0481 5.22812C13.2192 7.39051 13.8419 9.46352 14.8666 11.3393C15.1899 11.9312 15.0203 12.6714 14.4715 13.0634L12.8204 14.2428ZM9.45867 13.3669L11.9919 11.5575C11.2736 10.0069 10.7814 8.36244 10.5294 6.66667H7.01177C7.00371 6.88843 6.99967 7.11067 6.99967 7.33333C6.99967 17.2744 15.0586 25.3333 24.9997 25.3333C25.2223 25.3333 25.4446 25.3293 25.6663 25.3212V21.8036C23.9706 21.5516 22.3262 21.0593 20.7755 20.3411L18.9661 22.8744C18.2341 22.59 17.5271 22.2553 16.8495 21.8748L16.7721 21.8307C14.1593 20.3449 11.9881 18.1737 10.5023 15.5609L10.4583 15.4835C10.0777 14.8059 9.74306 14.0989 9.45867 13.3669Z" fill="#1E1E1E"/>
</g>
</svg>
