<svg width="162" height="18" viewBox="0 0 162 18" fill="none" xmlns="http://www.w3.org/2000/svg">
<path d="M2.98977 4.24941C2.87603 4.52892 2.81761 4.82787 2.81777 5.12964V12.5256C2.81711 12.8261 2.87579 13.1237 2.99047 13.4015C3.10514 13.6792 3.27355 13.9315 3.48601 14.144C3.69847 14.3564 3.95081 14.5249 4.22853 14.6395C4.50625 14.7542 4.80389 14.8129 5.10436 14.8122H12.4953C12.7958 14.8129 13.0934 14.7542 13.3711 14.6395C13.6488 14.5249 13.9012 14.3564 14.1136 14.144C14.3261 13.9315 14.4945 13.6792 14.6092 13.4015C14.7239 13.1237 14.7825 12.8261 14.7819 12.5256H17.6148C17.6162 13.1963 17.485 13.8607 17.229 14.4806C16.9729 15.1005 16.597 15.6637 16.1228 16.1379C15.6485 16.6122 15.0853 16.9881 14.4654 17.2442C13.8455 17.5002 13.1812 17.6313 12.5105 17.63H5.10436C4.43367 17.6313 3.76932 17.5002 3.14943 17.2442C2.52954 16.9881 1.96632 16.6122 1.49207 16.1379C1.01782 15.6637 0.641885 15.1005 0.38584 14.4806C0.129795 13.8607 -0.00132331 13.1963 1.00682e-05 12.5256V5.10435C-0.000286065 4.80929 0.0251046 4.51476 0.0758931 4.22411L2.98977 4.24941ZM12.4953 0.0252879C13.1651 0.021959 13.829 0.150767 14.449 0.404337C15.069 0.657906 15.6329 1.03126 16.1085 1.50303C16.584 1.97479 16.9618 2.53571 17.2203 3.15367C17.4788 3.77163 17.6128 4.43451 17.6148 5.10435H14.7819C14.7825 4.80388 14.7239 4.50624 14.6092 4.22852C14.4945 3.95079 14.3261 3.69846 14.1136 3.486C13.9012 3.27354 13.6488 3.10513 13.3711 2.99046C13.0934 2.87578 12.7958 2.81709 12.4953 2.81776H0.536244C0.959292 1.97215 1.60912 1.26081 2.41313 0.763223C3.21713 0.265632 4.14365 0.00138713 5.08918 0L12.4953 0.0252879Z" fill="#1A1A1A"/>
<path d="M22.6741 4.24951C22.5603 4.52903 22.5019 4.82797 22.5021 5.12975C22.5007 5.43064 22.5589 5.72882 22.6733 6.00713C22.7877 6.28543 22.956 6.53837 23.1685 6.75137C23.381 6.96437 23.6336 7.13322 23.9117 7.24821C24.1897 7.3632 24.4878 7.42206 24.7887 7.42139H32.1796C32.8499 7.42139 33.5137 7.55341 34.1329 7.80993C34.7522 8.06645 35.3149 8.44244 35.7889 8.91642C36.2629 9.3904 36.6389 9.95309 36.8954 10.5724C37.1519 11.1917 37.2839 11.8554 37.2839 12.5257C37.2839 13.196 37.1519 13.8598 36.8954 14.4791C36.6389 15.0984 36.2629 15.6611 35.7889 16.1351C35.3149 16.609 34.7522 16.985 34.1329 17.2415C33.5137 17.4981 32.8499 17.6301 32.1796 17.6301H20.4431V14.8123H32.1644C32.7229 14.7477 33.2381 14.4801 33.6121 14.0604C33.9861 13.6406 34.1928 13.098 34.1928 12.5359C34.1928 11.9737 33.9861 11.4311 33.6121 11.0113C33.2381 10.5916 32.7229 10.324 32.1644 10.2594H24.7735C24.0263 10.2592 23.2883 10.0952 22.6114 9.77895C21.9345 9.46265 21.3352 9.00175 20.8558 8.42872C20.3763 7.8557 20.0284 7.18449 19.8365 6.46242C19.6446 5.74034 19.6133 4.98496 19.745 4.24951H22.6741ZM36.5099 0.0253906V2.84316H20.2205C20.6436 1.99755 21.2934 1.28621 22.0974 0.788621C22.9014 0.29103 23.8279 0.0267778 24.7735 0.0253906H36.5099Z" fill="#FF4444"/>
<path d="M62.4967 0C63.244 0 63.9607 0.296867 64.4892 0.8253C65.0176 1.35373 65.3145 2.07044 65.3145 2.81776V17.6047H62.4967V11.6201H50.5276V8.80234H62.4967V2.81776H47.7148C47.7142 2.44796 47.7864 2.08167 47.9275 1.73983C48.0685 1.398 48.2756 1.08733 48.5369 0.825609C48.7981 0.563889 49.1084 0.356252 49.45 0.214584C49.7916 0.0729167 50.1578 -5.98108e-07 50.5276 0H62.4967ZM50.5276 4.2494V17.6047H47.7148V4.2494H50.5276Z" fill="#1A1A1A"/>
<path d="M81.3859 0C82.7397 0 84.038 0.537778 84.9952 1.49503C85.9525 2.45228 86.4903 3.75059 86.4903 5.10435C86.4903 6.4581 85.9525 7.75641 84.9952 8.71366C84.038 9.67091 82.7397 10.2087 81.3859 10.2087H81.3556L85.5999 17.6047H82.3673L78.128 10.2087H71.7084V17.6047H68.8906V4.2494H71.7084V7.41622H81.3859C81.9744 7.38855 82.5296 7.13529 82.9363 6.70903C83.343 6.28277 83.5699 5.71626 83.5699 5.12711C83.5699 4.53796 83.343 3.97145 82.9363 3.54519C82.5296 3.11893 81.9744 2.86567 81.3859 2.838H68.8906V0H81.3859Z" fill="#1A1A1A"/>
<path d="M104.086 4.55831e-06C104.456 -0.000661908 104.823 0.0717604 105.165 0.21313C105.507 0.3545 105.818 0.562029 106.08 0.823815C106.341 1.0856 106.549 1.3965 106.69 1.73867C106.832 2.08083 106.904 2.44754 106.903 2.81776V17.6047H104.086V11.6201H92.1215V8.80235H104.086V2.81776H89.3037C89.303 2.44754 89.3755 2.08083 89.5169 1.73867C89.6582 1.3965 89.8657 1.0856 90.1275 0.823815C90.3893 0.562029 90.7002 0.3545 91.0424 0.21313C91.3845 0.0717604 91.7513 -0.000661908 92.1215 4.55831e-06H104.086ZM92.1215 4.24941V17.6047H89.3037V4.24941H92.1215Z" fill="#1A1A1A"/>
<path d="M122.98 0C124 0.000489758 124.996 0.305966 125.842 0.877188C126.687 1.44841 127.342 2.25928 127.722 3.2056C128.103 4.15192 128.192 5.19045 127.978 6.18777C127.764 7.18508 127.257 8.0956 126.521 8.80234C127.259 9.50805 127.769 10.4187 127.984 11.4169C128.2 12.4151 128.111 13.4549 127.73 14.4023C127.349 15.3496 126.693 16.1611 125.846 16.7319C124.999 17.3027 124.001 17.6067 122.98 17.6047H110.479V4.2494H113.297V7.41622H122.975C123.284 7.43078 123.594 7.38237 123.884 7.2739C124.175 7.16543 124.44 6.99916 124.664 6.78517C124.889 6.57117 125.067 6.31389 125.189 6.02889C125.311 5.7439 125.374 5.43712 125.374 5.12711C125.374 4.8171 125.311 4.51032 125.189 4.22533C125.067 3.94033 124.889 3.68305 124.664 3.46905C124.44 3.25506 124.175 3.08879 123.884 2.98032C123.594 2.87185 123.284 2.82344 122.975 2.838H110.479V0H122.98ZM113.297 14.7869H122.98C123.538 14.7223 124.054 14.4547 124.428 14.035C124.802 13.6152 125.008 13.0726 125.008 12.5104C125.008 11.9483 124.802 11.4057 124.428 10.9859C124.054 10.5662 123.538 10.2986 122.98 10.234H113.297V14.7869Z" fill="#1A1A1A"/>
<path d="M140.833 0V2.81776H137.034V14.7869H140.833V17.6047H130.427V14.7869H134.226V0H140.833ZM132.809 0V2.81776H130.427V0H132.809Z" fill="#1A1A1A"/>
<path d="M158.351 0C159.098 0 159.815 0.296867 160.343 0.8253C160.872 1.35373 161.169 2.07044 161.169 2.81776V17.6047H158.351V11.6201H146.382V8.80234H158.351V2.81776H143.579C143.579 2.07044 143.876 1.35373 144.404 0.8253C144.933 0.296867 145.65 0 146.397 0H158.351ZM146.382 4.2494V17.6047H143.579V4.2494H146.382Z" fill="#1A1A1A"/>
</svg>
