<svg width="16" height="16" viewBox="0 0 16 16" fill="none" xmlns="http://www.w3.org/2000/svg">
<path d="M8.00067 6.36637C8.61207 5.74185 9.40807 5.33301 10.334 5.33301C12.359 5.33301 14.0007 6.97461 14.0007 8.99967V13.9997H12.6673V8.99967C12.6673 7.71101 11.6227 6.66634 10.334 6.66634C9.04533 6.66634 8.00067 7.71101 8.00067 8.99967V13.9997H6.66733V5.66634H8.00067V6.36637ZM3.33398 4.33301C2.7817 4.33301 2.33398 3.88529 2.33398 3.33301C2.33398 2.78072 2.7817 2.33301 3.33398 2.33301C3.88626 2.33301 4.33398 2.78072 4.33398 3.33301C4.33398 3.88529 3.88626 4.33301 3.33398 4.33301ZM2.66732 5.66634H4.00065V13.9997H2.66732V5.66634Z" fill="white"/>
</svg>
