<svg width="16" height="16" viewBox="0 0 16 16" fill="none" xmlns="http://www.w3.org/2000/svg">
<path d="M8.66699 5.99967H11.667L11.3337 7.33301H8.66699V13.333H7.33366V7.33301H4.66699V5.99967H7.33366V4.75152C7.33366 3.56283 7.45746 3.13178 7.68986 2.69721C7.92226 2.26265 8.26333 1.92159 8.69786 1.68919C9.13246 1.45677 9.56346 1.33301 10.7522 1.33301C11.1002 1.33301 11.4051 1.36634 11.667 1.43301V2.66634H10.7522C9.86973 2.66634 9.60099 2.71823 9.32666 2.86493C9.12446 2.97308 8.97373 3.1238 8.86559 3.32601C8.71886 3.60031 8.66699 3.86905 8.66699 4.75152V5.99967Z" fill="white"/>
</svg>
