<svg width="532" height="120" viewBox="0 0 532 120" fill="none" xmlns="http://www.w3.org/2000/svg">
<path d="M20.6692 28.7963C19.9021 30.7067 19.5108 32.7472 19.5168 34.8059V85.2047C19.5168 93.8443 26.2687 100.801 34.6502 100.801H83.5113C91.8929 100.801 98.6448 93.8443 98.6448 85.2047H117.267C117.267 104.485 102.212 120 83.5113 120H34.629C15.9287 120 0.873048 104.485 0.873048 85.2047V34.8059C0.872471 32.7922 1.04038 30.782 1.37502 28.7963H20.6692ZM83.529 0C102.229 0 117.285 15.5188 117.285 34.7988H98.6448C98.6448 26.1557 91.8929 19.1987 83.5113 19.1987H4.42928C9.95453 7.79827 21.3762 0 34.629 0H83.529Z" fill="white"/>
<path d="M299.038 28.7963C298.271 30.707 297.879 32.7472 297.882 34.8059C297.882 43.449 304.634 50.4059 313.015 50.4059H361.901C380.598 50.4059 395.653 65.9247 395.653 85.2012C395.653 104.478 380.598 120 361.901 120H284.385V100.801H361.901C370.279 100.801 377.031 93.8444 377.031 85.2012C377.031 76.5581 370.279 69.6047 361.901 69.6047H313.019C294.318 69.6047 279.263 54.0859 279.263 34.8059C279.261 32.7923 279.428 30.7821 279.761 28.7963H299.038ZM390.528 0V19.1987H282.812C288.341 7.79827 299.78 0 313.015 0H390.528Z" fill="white"/>
<path d="M512.505 0.00390625C522.82 0.00390625 531.128 8.56927 531.128 19.2026V119.997H512.505V79.199H433.356V60.0003H512.505V19.2026H414.733C414.733 8.56927 423.041 0.00390625 433.356 0.00390625H512.505ZM433.356 28.7931V119.997H414.733V28.7931H433.356Z" fill="white"/>
<path d="M170.925 0.764736C166.382 0.754484 161.881 1.64179 157.681 3.37572C153.481 5.10965 149.665 7.65606 146.452 10.8687C143.239 14.0814 140.692 17.8971 138.958 22.0967C137.224 26.2963 136.336 30.7971 136.346 35.3408V119.997H155.435V35.3443C155.43 32.3789 156.276 29.4743 157.874 26.9762C159.472 24.4782 161.755 22.4919 164.449 21.2537L236.627 93.4388V119.997H255.716V85.5275L170.925 0.764736Z" fill="url(#paint0_linear_593_2178)"/>
<path d="M255.7 0.00390625H230.198V20.348L236.618 25.5056V52.9728L255.707 72.0619V0.763946H254.791L255.7 0.0392479V0.00390625Z" fill="url(#paint1_linear_593_2178)"/>
<path d="M255.7 0.0429688V25.5093H255.696V0.767666H254.791L255.7 0.0429688Z" fill="url(#paint2_linear_593_2178)"/>
<defs>
<linearGradient id="paint0_linear_593_2178" x1="121.082" y1="29.8155" x2="285.806" y2="184.48" gradientUnits="userSpaceOnUse">
<stop stop-color="#DD1F26"/>
<stop offset="1" stop-color="#333333"/>
</linearGradient>
<linearGradient id="paint1_linear_593_2178" x1="232.616" y1="30.8505" x2="256.927" y2="36.3016" gradientUnits="userSpaceOnUse">
<stop stop-color="#DD1F26"/>
<stop offset="1" stop-color="#333333"/>
</linearGradient>
<linearGradient id="paint2_linear_593_2178" x1="237.575" y1="8.71439" x2="261.886" y2="14.1619" gradientUnits="userSpaceOnUse">
<stop stop-color="#DD1F26"/>
<stop offset="1" stop-color="#333333"/>
</linearGradient>
</defs>
</svg>
