<svg width="534" height="120" viewBox="0 0 534 120" fill="none" xmlns="http://www.w3.org/2000/svg">
<path d="M20.2381 28.844C19.4726 30.7547 19.0825 32.7951 19.0892 34.8535V85.1888C19.0892 93.8178 25.8305 100.764 34.2085 100.764H83.0591C91.4335 100.764 98.1784 93.8178 98.1784 85.1888H116.787C116.787 104.441 101.745 119.938 83.0591 119.938H34.2156C15.5295 119.938 0.484381 104.441 0.484381 85.1888V34.8358C0.483207 32.8221 0.65112 30.8119 0.986354 28.8263L20.2381 28.844ZM83.0485 0.0830078C101.735 0.0830078 116.776 15.5841 116.776 34.8358H98.1784C98.1784 26.2069 91.4335 19.257 83.0591 19.257H4.03708C9.56233 7.87067 20.9734 0.0830078 34.2156 0.0830078H83.0485Z" fill="white"/>
<path d="M301.404 28.7963C300.637 30.707 300.245 32.7472 300.248 34.8059C300.248 43.449 307 50.4059 315.381 50.4059H364.267C382.964 50.4059 398.02 65.9247 398.02 85.2012C398.02 104.478 382.964 120 364.267 120H286.751V100.801H364.267C372.645 100.801 379.397 93.8444 379.397 85.2012C379.397 76.5581 372.645 69.6047 364.267 69.6047H315.385C296.685 69.6047 281.629 54.0859 281.629 34.8059C281.627 32.7923 281.794 30.7821 282.127 28.7963H301.404ZM392.894 0V19.1987H285.178C290.707 7.79827 302.146 0 315.381 0H392.894Z" fill="white"/>
<path d="M514.893 0C525.208 0 533.515 8.56537 533.515 19.1987V119.993H514.893V79.1952H435.744V59.9965H514.893V19.1987H417.121C417.121 8.56537 425.428 0 435.744 0H514.893ZM435.744 28.7892V119.993H417.121V28.7892H435.744Z" fill="white"/>
<path d="M155.181 31.8737C154.422 33.7133 154.032 35.6846 154.036 37.6747V86.3732C154.031 88.3537 154.418 90.3155 155.174 92.146C155.931 93.9764 157.041 95.6395 158.441 97.0398C159.842 98.44 161.505 99.5498 163.336 100.305C165.167 101.061 167.128 101.448 169.109 101.443H217.8C219.781 101.448 221.743 101.061 223.573 100.305C225.404 99.5498 227.067 98.44 228.468 97.0398C229.869 95.6395 230.979 93.9764 231.735 92.146C232.491 90.3155 232.878 88.3537 232.874 86.3732H251.426C251.435 90.7915 250.572 95.1682 248.886 99.252C247.199 103.336 244.723 107.046 241.599 110.17C238.474 113.294 234.763 115.771 230.679 117.457C226.595 119.142 222.219 120.005 217.8 119.995H169.105C164.687 120.006 160.31 119.143 156.225 117.458C152.141 115.772 148.43 113.296 145.305 110.172C142.18 107.048 139.703 103.337 138.017 99.2529C136.33 95.1688 135.467 90.7918 135.477 86.3732V37.6747C135.477 35.7304 135.644 33.7896 135.975 31.8737H155.181ZM217.8 4.04599C222.219 4.03621 226.596 4.89938 230.681 6.58595C234.765 8.27253 238.476 10.7493 241.6 13.874C244.724 16.9987 247.201 20.7098 248.887 24.7942C250.573 28.8787 251.436 33.2559 251.426 37.6747H232.874C232.878 35.6941 232.491 33.7321 231.735 31.9014C230.979 30.0707 229.869 28.4074 228.468 27.0069C227.068 25.6064 225.404 24.4962 223.574 23.7402C221.743 22.9842 219.781 22.5971 217.8 22.6013H139.012C141.803 17.0138 146.099 12.3165 151.416 9.03823C156.733 5.76 162.859 4.03104 169.105 4.04599H217.8Z" fill="url(#paint0_linear_597_3358)"/>
<path d="M249.252 39.9591C247.648 42.1589 246.732 44.785 246.621 47.5051C246.509 50.2253 247.207 52.9175 248.626 55.2412C250.044 57.5649 252.12 59.4158 254.59 60.5599C257.06 61.704 259.815 62.0898 262.504 61.6687C265.194 61.2475 267.698 60.0382 269.701 58.1937C271.703 56.3493 273.114 53.9524 273.754 51.3063C274.394 48.6602 274.236 45.8837 273.298 43.3278C272.36 40.7719 270.686 38.5515 268.486 36.9473C267.026 35.8811 265.37 35.1132 263.612 34.6875C261.855 34.2618 260.031 34.1867 258.245 34.4664C256.458 34.7461 254.745 35.3752 253.202 36.3177C251.659 37.2602 250.317 38.4976 249.252 39.9591Z" fill="url(#paint1_radial_597_3358)"/>
<path d="M248.654 4.37472C247.414 6.07305 246.706 8.10091 246.619 10.2018C246.531 12.3027 247.069 14.3822 248.164 16.1773C249.259 17.9725 250.862 19.4025 252.77 20.2867C254.677 21.1708 256.805 21.4692 258.882 21.1442C260.959 20.8193 262.894 19.8855 264.441 18.461C265.987 17.0365 267.077 15.1853 267.571 13.1416C268.065 11.0978 267.943 8.95338 267.218 6.97945C266.494 5.00553 265.2 3.29082 263.501 2.05223C261.223 0.393249 258.38 -0.293992 255.597 0.141473C252.813 0.576939 250.316 2.09948 248.654 4.37472Z" fill="url(#paint2_radial_597_3358)"/>
<path d="M233.071 26.9251C232.307 27.9683 231.87 29.2145 231.815 30.506C231.759 31.7976 232.088 33.0766 232.76 34.1813C233.431 35.2859 234.415 36.1666 235.588 36.7119C236.76 37.2573 238.067 37.4428 239.345 37.245C240.622 37.0473 241.813 36.4751 242.765 35.6009C243.717 34.7267 244.389 33.5897 244.695 32.3337C245.001 31.0777 244.928 29.7591 244.485 28.5447C244.042 27.3303 243.248 26.2746 242.205 25.5111C241.513 25.0037 240.727 24.6379 239.893 24.4343C239.059 24.2308 238.193 24.1936 237.345 24.3249C236.496 24.4563 235.682 24.7535 234.949 25.1996C234.215 25.6458 233.577 26.2321 233.071 26.9251Z" fill="url(#paint3_radial_597_3358)"/>
<defs>
<linearGradient id="paint0_linear_597_3358" x1="116.631" y1="8.95968" x2="228.706" y2="86.3732" gradientUnits="userSpaceOnUse">
<stop stop-color="#00B3E9"/>
<stop offset="1" stop-color="#8D267F"/>
</linearGradient>
<radialGradient id="paint1_radial_597_3358" cx="0" cy="0" r="1" gradientUnits="userSpaceOnUse" gradientTransform="translate(283.782 59.4654) scale(26.9546 26.9546)">
<stop stop-color="#00B3E9"/>
<stop offset="1" stop-color="#8D267F"/>
</radialGradient>
<radialGradient id="paint2_radial_597_3358" cx="0" cy="0" r="1" gradientUnits="userSpaceOnUse" gradientTransform="translate(285.209 -0.825296) scale(41.3457 41.3457)">
<stop stop-color="#00B3E9"/>
<stop offset="1" stop-color="#8D267F"/>
</radialGradient>
<radialGradient id="paint3_radial_597_3358" cx="0" cy="0" r="1" gradientUnits="userSpaceOnUse" gradientTransform="translate(231.968 25.4757) scale(17.3322 17.3322)">
<stop stop-color="#00B3E9"/>
<stop offset="1" stop-color="#8D267F"/>
</radialGradient>
</defs>
</svg>
