<svg width="520" height="120" viewBox="0 0 520 120" fill="none" xmlns="http://www.w3.org/2000/svg">
<path d="M19.793 28.7892C19.0287 30.7004 18.6387 32.7405 18.6441 34.7988V85.1976C18.6441 93.8372 25.3925 100.794 33.774 100.794H82.6457C91.0273 100.794 97.7756 93.8372 97.7756 85.1976H116.398C116.398 104.478 101.346 119.993 82.6457 119.993H33.7599C15.0596 119.993 0.00390773 104.478 0.00390773 85.1976V34.7988C0.00333032 32.7851 0.171245 30.7749 0.505886 28.7892H19.793ZM82.6457 0C101.346 0 116.398 15.5188 116.398 34.7988H97.7756C97.7756 26.1557 91.0273 19.1987 82.6457 19.1987H3.56014C9.08892 7.79826 20.5071 0 33.7599 0H82.6457Z" fill="white"/>
<path d="M287.888 28.7963C287.122 30.707 286.729 32.7472 286.732 34.8059C286.732 43.449 293.484 50.4059 301.866 50.4059H350.752C369.448 50.4059 384.504 65.9247 384.504 85.2012C384.504 104.478 369.448 120 350.752 120H273.236V100.801H350.752C359.13 100.801 365.881 93.8444 365.881 85.2012C365.881 76.5581 359.13 69.6047 350.752 69.6047H301.869C283.169 69.6047 268.113 54.0859 268.113 34.8059C268.112 32.7923 268.278 30.7821 268.612 28.7963H287.888ZM379.378 0V19.1987H271.662C277.191 7.79827 288.631 0 301.866 0H379.378Z" fill="white"/>
<path d="M501.377 0C511.692 0 520 8.56537 520 19.1987V119.993H501.377V79.1952H422.228V59.9965H501.377V19.1987H403.605C403.605 8.56537 411.913 0 422.228 0H501.377ZM422.228 28.7892V119.993H403.605V28.7892H422.228Z" fill="white"/>
<path d="M175.515 84.8437V118.388H153.336V66.2812L175.515 84.8437Z" fill="url(#paint0_linear_597_3325)"/>
<path d="M175.488 20.9482H175.484V26.424H175.488V20.9482Z" fill="url(#paint1_linear_597_3325)"/>
<path d="M215.922 0H145.879V19.7961L153.345 24.8123V51.5407L161.663 58.5047L175.527 70.1066H215.922C231.766 70.1066 244.524 54.4747 244.524 35.0533C244.524 15.6319 231.766 0 215.922 0ZM215.922 50.7665H175.527V19.3401H215.922C223.027 19.3401 228.747 26.3501 228.747 35.0568C228.747 43.7636 223.027 50.7665 215.922 50.7665Z" fill="url(#paint2_linear_597_3325)"/>
<defs>
<linearGradient id="paint0_linear_597_3325" x1="-5.08271" y1="66.6878" x2="409.056" y2="133.733" gradientUnits="userSpaceOnUse">
<stop stop-color="#EE2D24"/>
<stop offset="1" stop-color="#F3AF1C"/>
</linearGradient>
<linearGradient id="paint1_linear_597_3325" x1="172.223" y1="22.9279" x2="176.703" y2="23.8911" gradientUnits="userSpaceOnUse">
<stop stop-color="#EE2D24"/>
<stop offset="1" stop-color="#F3AF1C"/>
</linearGradient>
<linearGradient id="paint2_linear_597_3325" x1="4.81372" y1="3.99458" x2="418.956" y2="71.0399" gradientUnits="userSpaceOnUse">
<stop stop-color="#EE2D24"/>
<stop offset="1" stop-color="#F3AF1C"/>
</linearGradient>
</defs>
</svg>
