<svg width="432" height="120" viewBox="0 0 432 120" fill="none" xmlns="http://www.w3.org/2000/svg">
<path d="M16.3263 23.4365C15.702 24.9913 15.3835 26.652 15.3884 28.3274V69.3455C15.3884 76.377 20.8836 82.0391 27.7051 82.0391H67.4716C74.2931 82.0391 79.7883 76.377 79.7883 69.3455H94.9446C94.9446 85.037 82.6912 97.6644 67.4716 97.6644H27.6878C12.4682 97.6644 0.214845 85.037 0.214845 69.3455V28.3274C0.214375 26.6886 0.351032 25.0525 0.623386 23.4365H16.3263ZM67.486 0C82.7056 0 94.959 12.6303 94.959 28.3217H79.7883C79.7883 21.2873 74.2931 15.6253 67.4716 15.6253H3.10916C7.60599 6.34677 16.9017 0 27.6878 0H67.486Z" fill="white"/>
<path d="M242.875 23.4365C242.252 24.9915 241.932 26.6519 241.935 28.3274C241.935 35.3618 247.43 41.0239 254.251 41.0239H294.038C309.255 41.0239 321.508 53.6541 321.508 69.3427C321.508 85.0312 309.255 97.6644 294.038 97.6644H230.95V82.0391H294.038C300.857 82.0391 306.352 76.3771 306.352 69.3427C306.352 62.3083 300.857 56.6491 294.038 56.6491H254.254C239.035 56.6491 226.781 44.0189 226.781 28.3274C226.78 26.6887 226.916 25.0526 227.187 23.4365H242.875ZM317.336 0V15.6253H229.67C234.17 6.34677 243.48 0 254.251 0H317.336Z" fill="white"/>
<path d="M416.628 0C425.023 0 431.784 6.97109 431.784 15.6253V97.6586H416.628V64.4545H352.211V48.8293H416.628V15.6253H337.055C337.055 6.97109 343.816 0 352.211 0H416.628ZM352.211 23.4307V97.6586H337.055V23.4307H352.211Z" fill="white"/>
<path d="M204.72 3.16895L184.84 83.2286H179.227L173.076 58.4428C173.076 58.4428 171.188 50.8302 164.119 50.8302H156.593C149.527 50.8302 147.637 58.4428 147.637 58.4428L141.488 83.2286H135.875L115.995 3.16895H101.359L123.13 90.8528C123.13 90.8528 125.032 98.4799 132.086 98.4799H143.065C143.468 94.7851 145.087 91.329 147.668 88.6547C147.668 88.6547 158.731 76.4014 160.356 63.9984C161.976 76.4129 173.05 88.6662 173.05 88.6662C175.631 91.3405 177.25 94.7966 177.653 98.4914H188.632C195.698 98.4914 197.588 90.8643 197.588 90.8643L219.359 3.18045L204.72 3.16895Z" fill="url(#paint0_linear_597_3341)"/>
<path d="M147.617 112.688C148.412 113.655 149.292 114.548 150.247 115.356C151.191 116.168 152.208 116.891 153.285 117.516C155.407 118.786 157.837 119.45 160.311 119.435C162.768 119.412 165.167 118.572 167.299 117.338C169.44 116.05 171.403 114.487 173.137 112.688C172.725 113.16 172.308 113.632 171.885 114.098L170.542 115.425C170.058 115.83 169.589 116.256 169.086 116.639C168.582 117.021 168.076 117.404 167.524 117.72C167.253 117.884 166.985 118.054 166.709 118.215L165.846 118.641C165.566 118.786 165.278 118.915 164.983 119.027L164.537 119.202L164.316 119.291L164.085 119.363L163.165 119.634C162.854 119.706 162.538 119.763 162.224 119.826C161.909 119.886 161.591 119.928 161.272 119.953C161.111 119.953 160.952 119.99 160.791 119.999H160.311C159.026 120.017 157.747 119.838 156.516 119.47C155.294 119.097 154.126 118.565 153.043 117.887C150.897 116.545 149.05 114.775 147.617 112.688Z" fill="url(#paint1_linear_597_3341)"/>
<path d="M149.152 98.4824C148.965 99.8513 148.922 101.236 149.023 102.614C149.112 103.975 149.393 105.317 149.86 106.599C150.323 107.875 151.019 109.056 151.911 110.08C152.828 111.103 153.895 111.982 155.076 112.686C153.759 112.172 152.565 111.388 151.569 110.385C151.069 109.877 150.625 109.316 150.245 108.713C149.87 108.107 149.556 107.465 149.307 106.797C148.824 105.461 148.573 104.052 148.565 102.631C148.537 101.226 148.735 99.8249 149.152 98.4824Z" fill="url(#paint2_linear_597_3341)"/>
<defs>
<linearGradient id="paint0_linear_597_3341" x1="101.359" y1="50.8244" x2="219.356" y2="50.8244" gradientUnits="userSpaceOnUse">
<stop stop-color="#023B4C"/>
<stop offset="1" stop-color="#19AEBF"/>
</linearGradient>
<linearGradient id="paint1_linear_597_3341" x1="147.378" y1="116.351" x2="173.355" y2="116.351" gradientUnits="userSpaceOnUse">
<stop stop-color="#023B4C"/>
<stop offset="1" stop-color="#19AEBF"/>
</linearGradient>
<linearGradient id="paint2_linear_597_3341" x1="148.49" y1="105.583" x2="155.214" y2="105.583" gradientUnits="userSpaceOnUse">
<stop stop-color="#023B4C"/>
<stop offset="1" stop-color="#19AEBF"/>
</linearGradient>
</defs>
</svg>
