<svg width="15" height="13" viewBox="0 0 15 13" fill="none" xmlns="http://www.w3.org/2000/svg">
<path d="M14.9817 1.75799C14.443 1.99743 13.8743 2.14708 13.2757 2.23687C13.8743 1.87771 14.3532 1.30904 14.5627 0.620644C13.994 0.949876 13.3655 1.18932 12.6771 1.33897C12.1383 0.770295 11.3602 0.411133 10.5221 0.411133C8.90589 0.411133 7.58896 1.72806 7.58896 3.34429C7.58896 3.58373 7.61889 3.79324 7.67875 4.00275C5.25441 3.88303 3.06951 2.71576 1.60293 0.919946C1.36349 1.3689 1.21384 1.84778 1.21384 2.38652C1.21384 3.40415 1.72265 4.30205 2.53076 4.8408C2.05188 4.81087 1.60293 4.69115 1.18391 4.48164V4.51157C1.18391 5.94821 2.20153 7.14542 3.54839 7.41479C3.30895 7.47465 3.03958 7.50458 2.77021 7.50458C2.59062 7.50458 2.38111 7.47465 2.20153 7.44472C2.59062 8.612 3.66811 9.47997 4.95511 9.47997C3.93748 10.2582 2.68042 10.737 1.30363 10.737C1.06419 10.737 0.824745 10.737 0.615234 10.7071C1.93216 11.5452 3.4586 12.024 5.13469 12.024C10.552 12.024 13.5151 7.53451 13.5151 3.64359C13.5151 3.52387 13.5151 3.37422 13.5151 3.2545C14.0838 2.86541 14.5926 2.35659 14.9817 1.75799Z" fill="#ED1C24"/>
</svg>
