<svg width="18" height="18" viewBox="0 0 18 18" fill="none" xmlns="http://www.w3.org/2000/svg">
<path fill-rule="evenodd" clip-rule="evenodd" d="M8.78051 0.920898C4.16359 0.920898 0.449219 4.63527 0.449219 9.25219C0.449219 12.9319 2.84447 16.0561 6.14227 17.1669C6.55883 17.2364 6.69769 16.9934 6.69769 16.7504C6.69769 16.5421 6.69769 16.0214 6.69769 15.3271C4.37187 15.8478 3.88588 14.2163 3.88588 14.2163C3.50403 13.2443 2.94861 13.0013 2.94861 13.0013C2.1849 12.4806 3.01803 12.4806 3.01803 12.4806C3.85116 12.55 4.30244 13.3484 4.30244 13.3484C5.03143 14.6328 6.24641 14.251 6.7324 14.0427C6.80183 13.4873 7.01011 13.1401 7.25311 12.9319C5.41328 12.7236 3.46931 11.9946 3.46931 8.80092C3.46931 7.89836 3.78174 7.13466 4.33716 6.57924C4.26773 6.37095 3.9553 5.53782 4.40658 4.35756C4.40658 4.35756 5.10086 4.14928 6.69769 5.2254C7.35725 5.05183 8.08624 4.94769 8.78051 4.94769C9.47479 4.94769 10.2038 5.05183 10.8633 5.2254C12.4602 4.14928 13.1544 4.35756 13.1544 4.35756C13.6057 5.50311 13.328 6.33624 13.2239 6.57924C13.7446 7.16937 14.0917 7.89836 14.0917 8.80092C14.0917 11.9946 12.1477 12.6889 10.2732 12.8971C10.5856 13.1401 10.8286 13.6608 10.8286 14.4245C10.8286 15.5354 10.8286 16.4379 10.8286 16.7156C10.8286 16.9239 10.9675 17.2016 11.4188 17.1322C14.7166 16.0561 17.1118 12.9319 17.1118 9.25219C17.1118 4.63527 13.3974 0.920898 8.78051 0.920898Z" fill="#ED1C24"/>
</svg>
