<svg width="18" height="19" viewBox="0 0 18 19" fill="none" xmlns="http://www.w3.org/2000/svg">
<path d="M9.00069 2.4903C11.3262 2.4903 11.6016 2.49901 12.5202 2.5409C13.0726 2.54766 13.6197 2.64908 14.1377 2.84076C14.5134 2.98565 14.8546 3.2076 15.1394 3.49233C15.4241 3.77705 15.646 4.11825 15.7909 4.49394C15.9826 5.01201 16.084 5.5591 16.0908 6.11145C16.1323 7.03011 16.1414 7.30551 16.1414 9.63099C16.1414 11.9565 16.1327 12.2319 16.0908 13.1505C16.084 13.7029 15.9826 14.25 15.7909 14.768C15.646 15.1437 15.4241 15.4849 15.1394 15.7697C14.8546 16.0544 14.5134 16.2763 14.1377 16.4212C13.6197 16.6129 13.0726 16.7143 12.5202 16.7211C11.602 16.7626 11.3266 16.7717 9.00069 16.7717C6.67479 16.7717 6.3994 16.763 5.48115 16.7211C4.92881 16.7143 4.38171 16.6129 3.86364 16.4212C3.48795 16.2763 3.14676 16.0544 2.86203 15.7697C2.5773 15.4849 2.35535 15.1437 2.21046 14.768C2.01878 14.25 1.91736 13.7029 1.9106 13.1505C1.86913 12.2319 1.86 11.9565 1.86 9.63099C1.86 7.30551 1.86871 7.03011 1.9106 6.11145C1.91736 5.5591 2.01878 5.01201 2.21046 4.49394C2.35535 4.11825 2.5773 3.77705 2.86203 3.49233C3.14676 3.2076 3.48795 2.98565 3.86364 2.84076C4.38171 2.64908 4.92881 2.54766 5.48115 2.5409C6.39982 2.49942 6.67521 2.4903 9.00069 2.4903ZM9.00069 0.920898C6.63664 0.920898 6.33885 0.930852 5.40982 0.973156C4.68693 0.987535 3.97172 1.12441 3.29461 1.37795C2.71376 1.5968 2.18765 1.93975 1.753 2.38288C1.30947 2.81769 0.96622 3.3441 0.747237 3.92532C0.493694 4.60244 0.356823 5.31765 0.342444 6.04053C0.30097 6.96873 0.291016 7.26652 0.291016 9.63058C0.291016 11.9946 0.30097 12.2924 0.343274 13.2214C0.357652 13.9443 0.494524 14.6595 0.748066 15.3367C0.966807 15.9178 1.30977 16.4442 1.753 16.8791C2.18789 17.3223 2.71429 17.6653 3.29544 17.884C3.97255 18.1376 4.68776 18.2744 5.41065 18.2888C6.33968 18.3303 6.63622 18.3411 9.00152 18.3411C11.3668 18.3411 11.6634 18.3311 12.5924 18.2888C13.3153 18.2744 14.0305 18.1376 14.7076 17.884C15.286 17.6598 15.8112 17.3174 16.2497 16.8786C16.6882 16.4398 17.0303 15.9144 17.2541 15.3358C17.5077 14.6587 17.6446 13.9435 17.6589 13.2206C17.7004 12.2924 17.7104 11.9946 17.7104 9.63058C17.7104 7.26652 17.7004 6.96873 17.6581 6.0397C17.6437 5.31682 17.5069 4.60161 17.2533 3.92449C17.0346 3.34334 16.6916 2.81694 16.2484 2.38205C15.8135 1.93882 15.2871 1.59586 14.7059 1.37712C14.0288 1.12358 13.3136 0.986705 12.5907 0.972327C11.6625 0.930852 11.3647 0.920898 9.00069 0.920898Z" fill="#ED1C24"/>
<path d="M9.00095 5.16113C8.11635 5.16113 7.25161 5.42345 6.51609 5.91491C5.78057 6.40637 5.2073 7.10489 4.86878 7.92216C4.53026 8.73943 4.44169 9.63872 4.61426 10.5063C4.78684 11.3739 5.21282 12.1709 5.83832 12.7964C6.46383 13.4219 7.26078 13.8479 8.12838 14.0204C8.99599 14.193 9.89528 14.1045 10.7125 13.7659C11.5298 13.4274 12.2283 12.8541 12.7198 12.1186C13.2113 11.3831 13.4736 10.5184 13.4736 9.63376C13.4736 8.44755 13.0024 7.30992 12.1636 6.47114C11.3248 5.63236 10.1872 5.16113 9.00095 5.16113ZM9.00095 12.537C8.42675 12.537 7.86544 12.3667 7.388 12.0477C6.91057 11.7287 6.53846 11.2753 6.31872 10.7448C6.09898 10.2143 6.04149 9.63054 6.15351 9.06737C6.26553 8.5042 6.54204 7.98689 6.94806 7.58087C7.35408 7.17485 7.87139 6.89834 8.43456 6.78632C8.99773 6.6743 9.58147 6.73179 10.112 6.95153C10.6425 7.17127 11.0959 7.54338 11.4149 8.02081C11.7339 8.49825 11.9042 9.05956 11.9042 9.63376C11.9042 10.4037 11.5983 11.1422 11.0538 11.6867C10.5094 12.2311 9.77093 12.537 9.00095 12.537Z" fill="#ED1C24"/>
<path d="M13.6506 6.02489C14.2279 6.02489 14.6958 5.55696 14.6958 4.97973C14.6958 4.4025 14.2279 3.93457 13.6506 3.93457C13.0734 3.93457 12.6055 4.4025 12.6055 4.97973C12.6055 5.55696 13.0734 6.02489 13.6506 6.02489Z" fill="#ED1C24"/>
</svg>
