<svg width="110" height="12" viewBox="0 0 110 12" fill="none" xmlns="http://www.w3.org/2000/svg">
<path d="M2.03499 2.89236C1.95757 3.08261 1.91781 3.28608 1.91792 3.49149V8.52556C1.91746 8.73007 1.95741 8.93266 2.03546 9.12169C2.11352 9.31073 2.22814 9.48248 2.37275 9.62709C2.51736 9.7717 2.68912 9.88634 2.87815 9.96439C3.06718 10.0424 3.26977 10.0824 3.47428 10.0819H8.50492C8.70943 10.0824 8.91202 10.0424 9.10105 9.96439C9.29008 9.88634 9.46183 9.7717 9.60645 9.62709C9.75106 9.48248 9.86568 9.31073 9.94374 9.12169C10.0218 8.93266 10.0617 8.73007 10.0613 8.52556H11.9895C11.9904 8.98207 11.9012 9.43426 11.7269 9.85619C11.5526 10.2781 11.2967 10.6615 10.974 10.9843C10.6512 11.3071 10.2678 11.5629 9.84587 11.7372C9.42394 11.9115 8.97175 12.0008 8.51525 11.9998H3.47428C3.01778 12.0008 2.56559 11.9115 2.14366 11.7372C1.72173 11.5629 1.33837 11.3071 1.01557 10.9843C0.692778 10.6615 0.436899 10.2781 0.262622 9.85619C0.0883448 9.43426 -0.00090071 8.98207 6.85293e-06 8.52556V3.47427C-0.00019471 3.27344 0.0170875 3.07297 0.0516566 2.87514L2.03499 2.89236ZM8.50492 0.0172122C8.96084 0.0149464 9.41273 0.10262 9.83473 0.275212C10.2567 0.447803 10.6405 0.701926 10.9642 1.02303C11.2879 1.34414 11.545 1.72593 11.721 2.14655C11.8969 2.56716 11.9882 3.01835 11.9895 3.47427H10.0613C10.0617 3.26976 10.0218 3.06717 9.94374 2.87814C9.86568 2.68911 9.75106 2.51735 9.60645 2.37274C9.46183 2.22813 9.29008 2.11351 9.10105 2.03545C8.91202 1.9574 8.70943 1.91745 8.50492 1.91791H0.364994C0.652942 1.34234 1.09525 0.858172 1.64249 0.519487C2.18974 0.180802 2.82038 0.000944146 3.46395 0L8.50492 0.0172122Z" fill="white"/>
<path d="M15.4338 2.89272C15.3564 3.08298 15.3167 3.28645 15.3168 3.49185C15.3159 3.69666 15.3555 3.89961 15.4333 4.08904C15.5112 4.27847 15.6257 4.45063 15.7704 4.59561C15.915 4.74059 16.0869 4.85552 16.2762 4.93379C16.4655 5.01206 16.6683 5.05212 16.8731 5.05166H21.9038C22.36 5.05166 22.8118 5.14152 23.2333 5.31612C23.6548 5.49072 24.0378 5.74664 24.3605 6.06925C24.6831 6.39187 24.939 6.77487 25.1136 7.19638C25.2882 7.6179 25.378 8.06968 25.378 8.52593C25.378 8.98218 25.2882 9.43396 25.1136 9.85548C24.939 10.277 24.6831 10.66 24.3605 10.9826C24.0378 11.3052 23.6548 11.5611 23.2333 11.7357C22.8118 11.9103 22.36 12.0002 21.9038 12.0002H13.9153V10.0823H21.8934C22.2736 10.0383 22.6243 9.85617 22.8788 9.57047C23.1334 9.28477 23.274 8.91547 23.274 8.53282C23.274 8.15017 23.1334 7.78086 22.8788 7.49517C22.6243 7.20947 22.2736 7.02731 21.8934 6.98334H16.8628C16.3543 6.98325 15.8519 6.87162 15.3912 6.65633C14.9305 6.44104 14.5226 6.12733 14.1962 5.7373C13.8699 5.34727 13.6331 4.89042 13.5024 4.39894C13.3718 3.90746 13.3506 3.39331 13.4402 2.89272H15.4338ZM24.8512 0.0175781V1.93549H13.7638C14.0518 1.35993 14.4941 0.875756 15.0413 0.537071C15.5886 0.198386 16.2192 0.0185223 16.8628 0.0175781H24.8512Z" fill="#ED1C24"/>
<path d="M42.5398 0C43.0485 0 43.5363 0.202063 43.896 0.56174C44.2556 0.921418 44.4577 1.40924 44.4577 1.91791V11.9826H42.5398V7.90922H34.393V5.99131H42.5398V1.91791H32.4785C32.4781 1.6662 32.5272 1.41689 32.6233 1.18422C32.7193 0.951546 32.8602 0.74009 33.038 0.56195C33.2159 0.383811 33.4271 0.242483 33.6596 0.146057C33.8921 0.0496307 34.1413 -4.07102e-07 34.393 0H42.5398ZM34.393 2.89236V11.9826H32.4785V2.89236H34.393Z" fill="white"/>
<path d="M55.3965 0C56.3179 0 57.2016 0.366038 57.8532 1.01759C58.5047 1.66914 58.8708 2.55284 58.8708 3.47427C58.8708 4.39571 58.5047 5.2794 57.8532 5.93095C57.2016 6.5825 56.3179 6.94854 55.3965 6.94854H55.3759L58.2648 11.9826H56.0645L53.179 6.94854H48.8095V11.9826H46.8916V2.89236H48.8095V5.04785H55.3965C55.7971 5.02901 56.175 4.85663 56.4518 4.5665C56.7286 4.27637 56.8831 3.89077 56.8831 3.48976C56.8831 3.08876 56.7286 2.70316 56.4518 2.41303C56.175 2.1229 55.7971 1.95052 55.3965 1.93168H46.8916V0H55.3965Z" fill="white"/>
<path d="M70.8455 3.10261e-06C71.0975 -0.000450527 71.3471 0.0488437 71.58 0.145067C71.8129 0.24129 72.0245 0.382545 72.2026 0.560729C72.3808 0.738914 72.5221 0.950525 72.6183 1.18342C72.7145 1.41632 72.7638 1.66592 72.7634 1.91791V11.9826H70.8455V7.90923H62.7021V5.99131H70.8455V1.91791H60.7842C60.7837 1.66592 60.833 1.41632 60.9293 1.18342C61.0255 0.950525 61.1667 0.738914 61.3449 0.560729C61.5231 0.382545 61.7347 0.24129 61.9676 0.145067C62.2005 0.0488437 62.4501 -0.000450527 62.7021 3.10261e-06H70.8455ZM62.7021 2.89236V11.9826H60.7842V2.89236H62.7021Z" fill="white"/>
<path d="M83.7056 0C84.3999 0.000333354 85.0782 0.208256 85.6534 0.597058C86.2286 0.98586 86.6744 1.53778 86.9336 2.18189C87.1927 2.826 87.2533 3.53288 87.1076 4.2117C86.9619 4.89052 86.6165 5.51027 86.1159 5.99131C86.6183 6.47165 86.9652 7.09151 87.1119 7.7709C87.2586 8.4503 87.1983 9.15807 86.9389 9.8029C86.6795 10.4477 86.2328 11 85.6565 11.3886C85.0802 11.7771 84.4007 11.984 83.7056 11.9826H75.1973V2.89235H77.1152V5.04785H83.7022C83.9129 5.05776 84.1235 5.0248 84.3212 4.95097C84.5189 4.87714 84.6995 4.76398 84.8522 4.61832C85.0048 4.47266 85.1264 4.29754 85.2094 4.10356C85.2924 3.90958 85.3352 3.70077 85.3352 3.48976C85.3352 3.27876 85.2924 3.06995 85.2094 2.87597C85.1264 2.68199 85.0048 2.50687 84.8522 2.36121C84.6995 2.21555 84.5189 2.10238 84.3212 2.02856C84.1235 1.95473 83.9129 1.92177 83.7022 1.93168H75.1973V0H83.7056ZM77.1152 10.0647H83.7056C84.0857 10.0207 84.4364 9.83859 84.691 9.55289C84.9455 9.26719 85.0862 8.89788 85.0862 8.51523C85.0862 8.13258 84.9455 7.76328 84.691 7.47758C84.4364 7.19188 84.0857 7.00972 83.7056 6.96576H77.1152V10.0647Z" fill="white"/>
<path d="M95.8582 0V1.91791H93.2723V10.0647H95.8582V11.9826H88.7754V10.0647H91.3613V0H95.8582ZM90.3972 0V1.91791H88.7754V0H90.3972Z" fill="white"/>
<path d="M107.782 0C108.291 0 108.778 0.202063 109.138 0.56174C109.498 0.921418 109.7 1.40924 109.7 1.91791V11.9826H107.782V7.90922H99.6351V5.99131H107.782V1.91791H97.7275C97.7275 1.40924 97.9296 0.921418 98.2893 0.56174C98.649 0.202063 99.1368 0 99.6454 0H107.782ZM99.6351 2.89236V11.9826H97.7275V2.89236H99.6351Z" fill="white"/>
</svg>
