<svg width="32" height="32" viewBox="0 0 32 32" fill="none" xmlns="http://www.w3.org/2000/svg">
<g id="pdf">
<path id="Vector" d="M16.666 16.4531C16.4759 16.4531 16.3434 16.4707 16.2686 16.4877V19.0285C16.3434 19.0458 16.4702 19.0458 16.5738 19.0458C17.3748 19.0518 17.8993 18.6134 17.8993 17.6861C17.8993 16.8506 17.4266 16.4531 16.666 16.4531Z" fill="white"/>
<path id="Vector_2" d="M22.4385 8.0378C22.0249 8.03772 21.6282 7.87338 21.3357 7.58091C21.0431 7.28844 20.8787 6.89178 20.8785 6.47812V1.68164H6.54862C6.13502 1.68173 5.73839 1.84609 5.44596 2.13857C5.15354 2.43106 4.98926 2.82772 4.98926 3.24132V28.922C4.98926 29.3356 5.15354 29.7322 5.44596 30.0247C5.73839 30.3172 6.13502 30.4816 6.54862 30.4816H25.6753C26.0889 30.4816 26.4856 30.3172 26.778 30.0247C27.0704 29.7322 27.2347 29.3356 27.2347 28.922V8.0378H22.4385ZM10.8536 19.754H10.8478C10.5537 19.754 10.3406 19.5293 10.3406 19.2237C10.3406 18.9069 10.5537 18.688 10.859 18.688C11.1589 18.688 11.3662 18.9012 11.372 19.2237C11.372 19.5293 11.1649 19.754 10.8536 19.754ZM14.4254 17.9104C14.1253 18.1869 13.676 18.3194 13.1576 18.3194C13.0424 18.3194 12.9384 18.3136 12.8577 18.2964V19.6906H11.9877V15.8592C12.2587 15.8132 12.6389 15.7786 13.1745 15.7786C13.7163 15.7786 14.1083 15.8823 14.3675 16.0954C14.6152 16.2855 14.7765 16.6084 14.7765 16.9885C14.7768 17.3744 14.6558 17.697 14.4254 17.9104ZM18.1867 19.2298C17.7774 19.57 17.1496 19.7309 16.3889 19.7309C15.9336 19.7309 15.6056 19.7021 15.3925 19.673V15.865C15.715 15.8074 16.1355 15.7786 16.5733 15.7786C17.3166 15.7786 17.8005 15.8996 18.1691 16.1818C18.5726 16.4813 18.8261 16.9655 18.8261 17.657C18.8261 18.4 18.5553 18.913 18.1867 19.2298ZM21.8325 16.5274H20.3406V17.4144H21.7345V18.129H20.3406V19.6903H19.4648V15.8071H21.8325V16.5274Z" fill="white"/>
<path id="Vector_3" d="M13.2216 16.4468C13.0427 16.4468 12.9218 16.458 12.8584 16.4756V17.6221C12.9333 17.6394 13.0254 17.6448 13.1525 17.6448C13.619 17.6448 13.907 17.409 13.907 17.017C13.9074 16.6602 13.6654 16.4468 13.2216 16.4468ZM22.4392 8.0378H27.2354L20.8792 1.68164V6.47812C20.8793 6.8918 21.0437 7.28851 21.3362 7.581C21.6288 7.87349 22.0255 8.0378 22.4392 8.0378Z" fill="white"/>
<path id="Vector_4" opacity="0.6" d="M22.4389 8.0378H27.2351L20.8789 1.68164V6.47812C20.879 6.8918 21.0434 7.28851 21.3359 7.581C21.6285 7.87349 22.0252 8.0378 22.4389 8.0378Z" fill="#ED1C24"/>
<path id="Vector_5" d="M10.8592 18.6887C10.5539 18.6887 10.3408 18.9076 10.3408 19.2244C10.3408 19.53 10.5539 19.7547 10.848 19.7547H10.8538C11.1651 19.7547 11.3722 19.53 11.3722 19.2244C11.3664 18.9019 11.1587 18.6887 10.8592 18.6887ZM14.3674 16.0961C14.1082 15.883 13.7165 15.7793 13.1744 15.7793C12.6387 15.7793 12.2586 15.8139 11.9875 15.8599V19.6916H12.8576V18.2974C12.9383 18.315 13.0419 18.3204 13.1575 18.3204C13.6759 18.3204 14.1251 18.1879 14.4253 17.9115C14.6557 17.698 14.7767 17.3755 14.7767 16.9895C14.7767 16.6087 14.6154 16.2862 14.3674 16.0961ZM13.152 17.6459C13.0253 17.6459 12.9328 17.6401 12.8579 17.6231V16.4766C12.9213 16.459 13.0423 16.4478 13.2211 16.4478C13.665 16.4478 13.9069 16.6609 13.9069 17.018C13.9066 17.4097 13.6186 17.6459 13.152 17.6459ZM18.169 16.1825C17.8003 15.9003 17.3165 15.7793 16.5731 15.7793C16.1354 15.7793 15.7146 15.8081 15.3923 15.8657V19.674C15.6055 19.7031 15.9335 19.7319 16.3888 19.7319C17.1495 19.7319 17.7773 19.5707 18.1866 19.2308C18.5552 18.914 18.8259 18.4011 18.8259 17.658C18.8259 16.9662 18.5725 16.482 18.169 16.1825ZM16.5731 19.0462C16.4695 19.0462 16.3427 19.0462 16.2679 19.0289V16.4881C16.3427 16.4708 16.4752 16.4535 16.6653 16.4535C17.4259 16.4535 17.8986 16.851 17.8986 17.6868C17.8986 18.6139 17.3741 19.0519 16.5731 19.0462ZM19.4643 19.6913H20.3402V18.13H21.7344V17.4155H20.3402V16.5281H21.8323V15.8078H19.4643V19.6913Z" fill="#ED1C24"/>
</g>
</svg>
